<?xml version="1.0" standalone="no"?>
<!DOCTYPE svg PUBLIC "-//W3C//DTD SVG 20010904//EN"
 "http://www.w3.org/TR/2001/REC-SVG-20010904/DTD/svg10.dtd">
<svg version="1.0" xmlns="http://www.w3.org/2000/svg"
 width="1360.000000pt" height="1360.000000pt" viewBox="0 0 1360.000000 1360.000000"
 preserveAspectRatio="xMidYMid meet">
<metadata>
Created by potrace 1.14, written by Peter Selinger 2001-2017
</metadata>
<g transform="translate(0.000000,1360.000000) scale(0.100000,-0.100000)"
fill="#000000" stroke="none">
<path d="M0 9045 l0 -1435 574 0 574 0 88 -79 c153 -136 339 -358 538 -646
469 -678 982 -1653 1751 -3332 l198 -433 2957 0 2957 0 158 378 c519 1238 778
1820 1046 2352 529 1052 951 1615 1298 1732 65 22 72 23 764 26 l697 3 0 1434
0 1435 -6800 0 -6800 0 0 -1435z m7890 22 l0 -174 -136 -6 c-501 -24 -744
-158 -785 -430 -9 -60 -8 -89 6 -161 69 -371 491 -1384 1014 -2436 187 -376
403 -790 413 -790 17 0 203 332 374 670 482 949 946 2026 1060 2460 41 153 33
293 -22 402 -89 176 -319 267 -726 285 l-148 6 0 174 0 173 1690 0 1690 0 0
-173 0 -174 -113 -6 c-712 -41 -1289 -452 -1872 -1332 -410 -620 -779 -1352
-1361 -2705 l-191 -445 -2117 -3 -2117 -2 -45 97 c-828 1788 -1461 2905 -2045
3608 -46 55 -157 174 -248 265 -235 235 -419 368 -619 448 -91 37 -242 72
-309 72 l-43 0 0 175 0 175 3325 0 3325 0 0 -173z"/>
</g>
</svg>
