<?xml version="1.0" standalone="no"?>
<!DOCTYPE svg PUBLIC "-//W3C//DTD SVG 20010904//EN"
 "http://www.w3.org/TR/2001/REC-SVG-20010904/DTD/svg10.dtd">
<svg version="1.0" xmlns="http://www.w3.org/2000/svg"
 width="160.000000pt" height="160.000000pt" viewBox="0 0 160.000000 160.000000"
 preserveAspectRatio="xMidYMid meet">
<metadata>
Created by potrace 1.14, written by Peter Selinger 2001-2017
</metadata>
<g transform="translate(0.000000,160.000000) scale(0.100000,-0.100000)"
fill="#000000" stroke="none">
<path d="M1245 1439 c-77 -16 -205 -80 -251 -127 -42 -43 -78 -106 -90 -157
-3 -16 -8 -75 -9 -130 -2 -55 -4 -113 -4 -129 l-1 -29 -21 27 c-24 30 -45 26
-28 -7 9 -17 2 -14 -38 15 -145 104 -239 129 -383 104 -100 -18 -225 -105
-293 -204 -28 -40 -131 -311 -122 -320 3 -3 23 12 45 33 38 37 43 39 93 36
128 -8 143 -6 218 32 41 20 115 68 164 107 92 74 140 101 210 119 53 14 122
14 131 0 4 -6 17 -50 29 -98 18 -73 21 -109 19 -236 -2 -134 -6 -164 -37 -285
-31 -121 -33 -137 -21 -158 16 -24 52 -29 84 -12 18 10 37 59 47 125 3 17 10
59 17 96 12 64 13 168 2 284 -9 89 -14 110 -52 209 -35 89 -35 92 -18 123 19
37 114 90 209 117 118 34 189 72 269 146 54 50 85 107 100 189 14 73 36 111
64 111 24 0 6 12 -25 17 -60 10 -261 11 -308 2z"/>
</g>
</svg>
