<?xml version="1.0" standalone="no"?>
<!DOCTYPE svg PUBLIC "-//W3C//DTD SVG 20010904//EN"
 "http://www.w3.org/TR/2001/REC-SVG-20010904/DTD/svg10.dtd">
<svg version="1.0" xmlns="http://www.w3.org/2000/svg"
 width="1024.000000pt" height="1024.000000pt" viewBox="0 0 1024.000000 1024.000000"
 preserveAspectRatio="xMidYMid meet">
<metadata>
Created by potrace 1.14, written by Peter Selinger 2001-2017
</metadata>
<g transform="translate(0.000000,1024.000000) scale(0.100000,-0.100000)"
fill="#000000" stroke="none">
<path d="M7977 8444 c-1 -1 -67 -4 -147 -8 -80 -3 -155 -8 -167 -10 -12 -3
-48 -7 -79 -11 -47 -5 -150 -21 -249 -39 -11 -2 -51 -12 -90 -21 -38 -9 -77
-18 -85 -20 -66 -15 -280 -86 -392 -131 -521 -206 -975 -537 -1342 -979 -104
-125 -270 -364 -315 -453 l-21 -42 87 -103 c49 -56 120 -145 159 -197 69 -93
194 -276 194 -283 0 -2 22 -40 48 -84 197 -327 375 -805 448 -1198 21 -117 20
-113 28 -166 l7 -45 67 8 c99 13 363 74 472 109 128 41 263 90 274 101 6 4 16
8 24 8 25 0 314 145 437 220 139 84 325 216 428 303 72 61 326 311 383 377
283 331 502 714 641 1125 61 182 110 393 143 625 31 212 34 497 7 578 -51 151
-169 268 -319 313 -61 19 -97 21 -354 22 -157 1 -286 1 -287 1z"/>
<path d="M1695 7475 c-144 -35 -255 -120 -318 -244 -54 -106 -61 -150 -53
-352 3 -98 8 -184 10 -191 3 -7 7 -40 11 -73 25 -274 116 -619 237 -905 170
-402 398 -740 708 -1051 167 -167 230 -223 390 -341 278 -204 581 -363 900
-471 129 -44 329 -99 401 -111 19 -3 70 -12 114 -20 44 -8 107 -18 140 -22 33
-4 74 -8 90 -10 17 -2 98 -7 180 -10 83 -4 152 -8 154 -10 2 -2 4 -333 4 -736
0 -554 3 -748 13 -795 33 -161 172 -313 324 -353 69 -18 81 -20 140 -21 57 0
68 1 138 21 154 41 298 200 330 363 10 50 9 2142 -1 2237 -4 30 -9 76 -12 102
-3 26 -8 72 -11 101 -26 241 -130 627 -228 852 -184 420 -404 750 -709 1058
-197 201 -350 323 -601 484 -126 81 -458 253 -488 253 -8 0 -18 4 -24 8 -10 9
-141 59 -239 91 -89 29 -325 89 -397 101 -35 5 -74 12 -88 14 -40 7 -90 14
-155 22 -33 3 -76 8 -95 11 -19 2 -210 5 -425 7 -283 3 -404 0 -440 -9z"/>
</g>
</svg>
