<?xml version="1.0" standalone="no"?>
<!DOCTYPE svg PUBLIC "-//W3C//DTD SVG 20010904//EN"
 "http://www.w3.org/TR/2001/REC-SVG-20010904/DTD/svg10.dtd">
<svg version="1.0" xmlns="http://www.w3.org/2000/svg"
 width="120.000000pt" height="120.000000pt" viewBox="0 0 120.000000 120.000000"
 preserveAspectRatio="xMidYMid meet">
<metadata>
Created by potrace 1.14, written by Peter Selinger 2001-2017
</metadata>
<g transform="translate(0.000000,120.000000) scale(0.100000,-0.100000)"
fill="#000000" stroke="none">
<path d="M886 1155 c-65 -40 -90 -65 -111 -112 -16 -35 -13 -120 5 -167 15
-40 -25 -186 -51 -186 -5 0 -7 -4 -4 -10 9 -14 -27 -78 -91 -159 -49 -63 -59
-71 -65 -55 -6 16 -8 15 -8 -7 -1 -14 -10 -37 -22 -50 -11 -13 -29 -34 -39
-46 -11 -13 -36 -47 -56 -78 -20 -30 -38 -55 -38 -55 -1 0 -2 46 -3 103 -1
155 -20 210 -93 275 -45 38 -223 123 -231 109 -11 -16 -8 -139 3 -177 14 -48
57 -130 82 -158 12 -13 34 -31 50 -39 16 -8 37 -23 47 -32 9 -9 41 -25 69 -36
69 -27 76 -42 52 -113 -11 -31 -23 -76 -27 -99 -6 -38 -5 -43 13 -43 15 0 21
9 26 40 8 54 45 150 57 150 5 0 23 -15 38 -33 26 -28 70 -55 164 -98 33 -15
134 -19 160 -6 10 5 30 11 43 13 14 3 55 24 92 47 38 23 76 47 86 52 10 6 17
15 17 20 -1 15 -152 94 -207 108 -78 20 -163 16 -220 -12 -113 -55 -134 -66
-134 -73 0 -5 -9 -8 -20 -8 -11 0 -20 2 -20 5 0 6 27 50 43 70 4 6 26 35 49
65 61 79 79 87 143 61 17 -7 38 -14 48 -16 10 -2 27 -7 38 -10 36 -12 123 -12
154 -1 57 21 105 71 105 110 0 22 -41 63 -79 78 -38 15 -117 11 -157 -8 -19
-9 -61 -43 -93 -75 -32 -33 -63 -59 -70 -59 -13 0 -15 27 -3 32 14 5 78 99
107 158 15 30 35 61 44 68 9 7 10 11 4 7 -15 -7 -16 -4 -4 27 5 13 11 43 15
68 4 30 13 50 27 59 84 58 133 163 127 275 l-3 56 -59 -35z"/>
<path d="M559 1049 c0 -2 -2 -13 -5 -24 -11 -53 -6 -151 9 -180 9 -16 17 -35
17 -42 0 -6 14 -17 30 -25 17 -7 30 -16 30 -19 0 -4 16 -17 36 -29 27 -15 40
-18 48 -10 16 16 13 129 -4 170 -14 34 -89 120 -105 120 -5 0 -19 10 -32 22
-13 12 -23 20 -24 17z"/>
<path d="M374 893 c-15 -69 -11 -165 7 -216 26 -71 142 -192 178 -185 19 4 31
56 31 139 1 75 -21 136 -67 185 -29 32 -127 114 -136 114 -3 0 -8 -17 -13 -37z"/>
<path d="M965 883 c-58 -17 -105 -48 -105 -69 0 -8 -5 -14 -10 -14 -6 0 -20
-19 -30 -42 -16 -37 -17 -44 -4 -51 24 -14 56 -19 118 -18 87 0 126 31 177
138 16 35 29 65 29 68 0 11 -126 2 -175 -12z"/>
</g>
</svg>
